PathFileType	4	(X/Y/Z)	C:/Users/opensim2020/Desktop/walking_exp_matlab/subject03_walking06_straight_04.trc																																																																																																																																		
DataRate	CameraRate	NumFrames	NumMarkers	Units	OrigDataRate	OrigDataStartFrame	OrigNumFrames																																																																																																																														
100	100	5	44	mm	100	2902	278																																																																																																																														
Frame#	Time	LFHD			RFHD			LBHD			RBHD			C7			T10			CLAV			STRN			RBAK			LSHO			LUPA			LELB			LFRM			LWRA			LWRB			LFIN			RSHO			RUPA			RELB			RFRM			RWRA			RWRB			RFIN			LASI			RASI			LPSI			RPSI			LTHI			LKNE			LTIB			LANK			LHEE			LTOE			RTHI			RKNE			RTIB			RANK			RHEE			RTOE			*39			*40			*41			*42			*43		
		X1	Y1	Z1	X2	Y2	Z2	X3	Y3	Z3	X4	Y4	Z4	X5	Y5	Z5	X6	Y6	Z6	X7	Y7	Z7	X8	Y8	Z8	X9	Y9	Z9	X10	Y10	Z10	X11	Y11	Z11	X12	Y12	Z12	X13	Y13	Z13	X14	Y14	Z14	X15	Y15	Z15	X16	Y16	Z16	X17	Y17	Z17	X18	Y18	Z18	X19	Y19	Z19	X20	Y20	Z20	X21	Y21	Z21	X22	Y22	Z22	X23	Y23	Z23	X24	Y24	Z24	X25	Y25	Z25	X26	Y26	Z26	X27	Y27	Z27	X28	Y28	Z28	X29	Y29	Z29	X30	Y30	Z30	X31	Y31	Z31	X32	Y32	Z32	X33	Y33	Z33	X34	Y34	Z34	X35	Y35	Z35	X36	Y36	Z36	X37	Y37	Z37	X38	Y38	Z38	X39	Y39	Z39	X40	Y40	Z40	X41	Y41	Z41	X42	Y42	Z42	X43	Y43	Z43	X44	Y44	Z44
																																																																																																																																					
174	1.73	305.7251	1602.49438	962.56238	299.74765	1610.18408	1095.27332	175.70332	1563.78564	962.6076	174.80893	1570.8667	1093.48279	136.27155	1405.2157	1022.10657	104.13374	1089.77356	1018.8335	256.65945	1327.25281	1025.80688	301.36801	1163.78674	1024.0177	79.35145	1227.87891	1116.31531	214.99635	1362.70447	866.80518	182.97548	1163.75769	799.32965	169.17361	1040.88416	788.86993	171.51863	910.11298	788.50586	169.93224	790.57935	817.53094	145.28288	800.06946	767.49097	143.0153	715.2002	777.24957	208.0266	1350.45044	1184.10266	249.03421	1139.08264	1266.474	299.41098	1040.04407	1284.58325	377.69635	928.79205	1281.89343	450.44885	864.77936	1242.76099	425.94824	841.34204	1284.15784	483.22083	796.48669	1273.80005	282.84109	927.93115	918.72156	256.65521	925.17566	1155.65283	115.91163	946.43915	947.38812	101.68607	956.98883	1097.0625	282.92661	630.43469	875.9859	332.79871	460.77667	921.14508	334.33755	269.50146	916.9101	373.48499	63.59942	954.03705	335.19199	29.90563	990.26349	525.16089	34.84446	979.15118	156.41855	637.11157	1186.86133	134.55721	457.72592	1154.60242	17.37907	300.00269	1147.53516	-89.61614	112.19437	1091.75232	-137.76999	99.84248	1036.83276	31.52509	29.18641	1079.03711	223.88324	1666.93896	1010.28461	NaN	NaN	NaN	NaN	NaN	NaN	NaN	NaN	NaN	NaN	NaN	NaN
175	1.74	315.2045	1604.15759	961.90424	309.04144	1611.76746	1094.60498	185.31219	1565.0293	961.8761	184.22763	1572.05347	1092.63013	146.15826	1406.59473	1021.32922	114.16669	1091.11206	1018.71942	266.50098	1328.76721	1025.15686	311.49915	1165.37268	1023.56549	89.03222	1229.06726	1115.22424	225.41267	1363.90112	866.08435	194.25999	1164.73877	798.84552	180.29964	1041.92969	788.50159	182.0453	911.08881	788.15271	178.78401	791.50012	817.29639	155.4066	801.18524	766.86285	152.24791	716.29498	776.76971	217.55334	1351.78723	1183.45203	257.43353	1139.73962	1265.0542	307.40558	1040.30334	1282.83386	384.91333	928.57831	1280.15454	457.36624	864.19116	1241.12854	432.45755	840.65466	1282.26025	489.56113	795.70227	1272.16492	293.35971	930.59418	918.30237	267.34262	925.65918	1155.01489	126.10256	948.85938	947.55939	112.40347	957.77374	1097.25598	292.17709	633.05536	876.20764	340.64957	462.50046	921.0755	338.99521	270.32074	916.44086	374.3172	63.83249	954.48096	335.23611	30.01859	990.22156	525.63531	34.42548	980.55701	168.32671	637.10229	1186.81445	147.3046	457.75476	1155.60059	26.08096	302.8114	1148.08276	-85.25146	117.69508	1092.35986	-133.1895	107.35075	1037.1355	32.19305	29.17406	1079.11182	233.10455	1668.32092	1009.47284	NaN	NaN	NaN	NaN	NaN	NaN	NaN	NaN	NaN	NaN	NaN	NaN
176	1.75	324.6554	1605.82397	961.24536	318.35565	1613.42725	1093.91687	194.90762	1566.4292	961.02509	193.6727	1573.4668	1091.86035	155.86491	1408.17578	1020.39288	124.12098	1092.56055	1018.7074	276.27847	1330.45422	1024.55383	321.50897	1167.14734	1023.14557	98.76104	1230.5592	1114.41553	235.74005	1365.4823	865.47375	206.187	1166.073	798.2804	191.85991	1043.30237	788.17419	193.04056	912.53253	787.86139	188.65514	792.66449	817.31726	166.24373	802.70349	766.21149	162.16472	717.76355	776.29785	227.0737	1353.58105	1182.75208	265.75793	1140.81555	1263.47864	315.13477	1040.94873	1280.95825	391.62738	928.41919	1278.2865	463.64496	863.46698	1239.50281	438.31482	840.13196	1280.47339	495.16281	794.85449	1270.65039	303.77017	933.44873	917.78064	278.45148	926.74054	1153.46069	136.49458	951.20123	947.68652	123.16308	958.83734	1097.45581	301.27603	635.46936	876.19653	348.20566	464.37701	920.95435	343.07791	271.23322	916.34106	374.98563	63.78835	954.77423	335.35516	30.15434	990.18231	526.09894	34.02417	980.38544	180.73019	637.23969	1186.90186	161.25049	457.77875	1156.96533	36.13854	305.65662	1149.02539	-79.86903	123.77544	1092.9939	-127.48692	115.75195	1037.26453	32.95758	29.20299	1079.16858	NaN	NaN	NaN	NaN	NaN	NaN	NaN	NaN	NaN	NaN	NaN	NaN	NaN	NaN	NaN
177	1.76	334.38077	1607.57922	960.69586	327.74847	1615.05151	1093.29053	204.40631	1567.94617	960.2453	203.05214	1574.97949	1091.0553	165.52827	1409.76306	1019.63275	133.97105	1094.16797	1018.70398	286.03976	1332.21411	1023.98419	331.59671	1168.93225	1022.73328	108.64227	1232.19727	1113.82263	245.99156	1367.34082	864.95746	217.68292	1167.83936	797.89374	203.64981	1044.94592	788.08435	204.64294	914.27008	787.61176	199.64832	794.55951	816.61462	177.59181	804.52936	765.53107	172.74965	719.4729	775.77887	236.46365	1355.63599	1182.00183	274.16608	1142.16956	1261.82263	322.70746	1041.87622	1278.8739	397.85315	928.53577	1276.47095	469.54428	862.9718	1237.82666	443.59586	839.62866	1278.70789	499.91754	793.74805	1269.04468	314.18906	936.25201	917.00586	289.04791	927.87	1152.78772	146.73727	953.60468	947.87543	133.87863	960.14209	1097.49255	310.0816	637.31744	875.75739	354.8439	465.70941	920.66785	346.40109	271.77481	916.1864	375.11783	63.92806	954.83142	335.39716	30.25066	990.146	526.47156	33.68303	979.82843	193.63322	637.4549	1187.17798	176.46802	457.75781	1158.83081	47.29798	308.75598	1150.24573	-73.56149	130.48305	1093.78503	-120.38258	124.87285	1037.42822	33.88244	29.2578	1079.15027	251.17235	1675.86133	1005.74603	NaN	NaN	NaN	NaN	NaN	NaN	NaN	NaN	NaN	NaN	NaN	NaN
178	1.77	343.45325	1609.08936	959.87292	337.06073	1616.6261	1092.57507	213.88905	1569.57166	959.51874	212.39252	1576.59314	1090.27686	175.09225	1410.9729	1018.47113	143.87608	1095.69568	1018.44067	295.81277	1333.9906	1023.41003	341.5838	1170.77271	1022.3927	118.54329	1233.88184	1113.45044	256.2341	1369.35046	864.46606	229.03719	1169.8158	797.487	215.94672	1046.95532	788.14319	216.64128	916.30463	787.32684	211.21654	796.45685	816.17279	189.70222	806.56207	764.82458	183.97491	721.29895	775.25128	245.82857	1357.72107	1181.11853	282.47137	1143.69128	1260.14099	330.0141	1042.95801	1276.71448	403.81839	928.62061	1274.61145	474.78671	862.20795	1236.41602	448.41916	839.17291	1277.0072	504.27603	792.62158	1267.67505	324.24252	938.64874	916.15588	299.50314	929.32159	1151.83276	156.96063	955.9483	947.95038	144.47919	961.57721	1097.35962	318.27637	638.56567	874.93475	360.58978	466.7171	919.91101	348.86111	272.06549	916.07642	375.35184	64.11152	954.80756	335.44611	30.24528	990.09985	526.66547	33.43862	979.83075	206.92856	637.80304	1187.67725	192.79326	457.72012	1161.0686	59.61197	312.03647	1151.85486	-65.86877	137.47325	1094.83374	-111.83767	134.51331	1037.78772	35.02506	29.4062	1079.10815	261.20819	1672.99792	1007.03772	NaN	NaN	NaN	NaN	NaN	NaN	NaN	NaN	NaN	NaN	NaN	NaN
